<?xml version="1.0" encoding="UTF-8" standalone="no"?>
<svg
   width="218.66"
   height="220.93"
   version="1.1"
   id="svg3132"
   sodipodi:docname="main.svg"
   inkscape:version="1.2.2 (732a01da63, 2022-12-09)"
   xmlns:inkscape="http://www.inkscape.org/namespaces/inkscape"
   xmlns:sodipodi="http://sodipodi.sourceforge.net/DTD/sodipodi-0.dtd"
   xmlns="http://www.w3.org/2000/svg"
   xmlns:svg="http://www.w3.org/2000/svg">
  <defs
     id="defs3136" />
  <sodipodi:namedview
     id="namedview3134"
     pagecolor="#ffffff"
     bordercolor="#666666"
     borderopacity="1.0"
     inkscape:showpageshadow="2"
     inkscape:pageopacity="0.0"
     inkscape:pagecheckerboard="0"
     inkscape:deskcolor="#d1d1d1"
     showgrid="true"
     inkscape:zoom="4.6485314"
     inkscape:cx="109.17427"
     inkscape:cy="115.4128"
     inkscape:window-width="1507"
     inkscape:window-height="1239"
     inkscape:window-x="1655"
     inkscape:window-y="505"
     inkscape:window-maximized="0"
     inkscape:current-layer="svg3132">
    <inkscape:grid
       type="xygrid"
       id="grid3138" />
  </sodipodi:namedview>
  <path
     d="M186.51 188.41a110.26 110.26 0 0 0 32.14-77.94 6.86 6.86 0 1 0-13.71 0 96.59 96.59 0 0 1-28.17 68.3 94.15 94.15 0 0 1-134.89 0 96.9 96.9 0 0 1 0-136.61 94.35 94.35 0 0 1 66.95-28.45 10.23 10.23 0 0 1-.12 20.45h-.74a73.69 73.69 0 0 0-50.31 22.18 75.4 75.4 0 0 0 0 106.26 73.6 73.6 0 0 0 105.3 0 75.17 75.17 0 0 0 21.9-53.13 23.74 23.74 0 1 0-47.48 0v1.16a27.61 27.61 0 1 1-27.61-27.38 6.85 6.85 0 1 0 0-13.7 41.08 41.08 0 1 0 41.31 41.08 5.49 5.49 0 0 0 0-.58 5.63 5.63 0 0 0 0-.58 10 10 0 1 1 20.08 0A61.52 61.52 0 0 1 153.22 153a59.88 59.88 0 0 1-85.81 0 61.68 61.68 0 0 1 0-87 60 60 0 0 1 42.9-18.11 6.84 6.84 0 0 0 1.82-.26A23.95 23.95 0 0 0 110.06 0h-1.55a107.91 107.91 0 0 0-76.37 32.53 110.57 110.57 0 0 0 0 155.88 107.86 107.86 0 0 0 154.37 0z"
     fill="#f15835"
     id="path3130"
     style="fill-opacity:1;fill:#f15835" />
</svg>
